<svg width="52" height="52" viewBox="0 0 52 52" fill="none" xmlns="http://www.w3.org/2000/svg">
<path d="M52 15C52 15.5523 51.5523 16 51 16H49C48.4477 16 48 15.5523 48 15V13C48 12.4477 48.4477 12 49 12H51C51.5523 12 52 12.4477 52 13V15Z" fill="#861515"/>
<path d="M52 3C52 3.55228 51.5523 4 51 4H49C48.4477 4 48 3.55228 48 3V1C48 0.447716 48.4477 0 49 0H51C51.5523 0 52 0.447716 52 1V3Z" fill="#861515"/>
<path d="M40 39C40 39.5523 39.5523 40 39 40H37C36.4477 40 36 39.5523 36 39V37C36 36.4477 36.4477 36 37 36H39C39.5523 36 40 36.4477 40 37V39Z" fill="#861515"/>
<path d="M40 27C40 27.5523 39.5523 28 39 28H37C36.4477 28 36 27.5523 36 27V25C36 24.4477 36.4477 24 37 24H39C39.5523 24 40 24.4477 40 25V27Z" fill="#861515"/>
<path d="M40 15C40 15.5523 39.5523 16 39 16H37C36.4477 16 36 15.5523 36 15V13C36 12.4477 36.4477 12 37 12H39C39.5523 12 40 12.4477 40 13V15Z" fill="#861515"/>
<path d="M40 3C40 3.55228 39.5523 4 39 4H37C36.4477 4 36 3.55228 36 3V1C36 0.447716 36.4477 0 37 0H39C39.5523 0 40 0.447716 40 1V3Z" fill="#861515"/>
<path d="M16 51C16 51.5523 15.5523 52 15 52H13C12.4477 52 12 51.5523 12 51V49C12 48.4477 12.4477 48 13 48H15C15.5523 48 16 48.4477 16 49V51Z" fill="#861515"/>
<path d="M16 39C16 39.5523 15.5523 40 15 40H13C12.4477 40 12 39.5523 12 39V37C12 36.4477 12.4477 36 13 36H15C15.5523 36 16 36.4477 16 37V39Z" fill="#861515"/>
<path d="M16 27C16 27.5523 15.5523 28 15 28H13C12.4477 28 12 27.5523 12 27V25C12 24.4477 12.4477 24 13 24H15C15.5523 24 16 24.4477 16 25V27Z" fill="#861515"/>
<path d="M16 15C16 15.5523 15.5523 16 15 16H13C12.4477 16 12 15.5523 12 15V13C12 12.4477 12.4477 12 13 12H15C15.5523 12 16 12.4477 16 13V15Z" fill="#861515"/>
<path d="M16 3C16 3.55228 15.5523 4 15 4H13C12.4477 4 12 3.55228 12 3V1C12 0.447716 12.4477 0 13 0H15C15.5523 0 16 0.447716 16 1V3Z" fill="#861515"/>
<path d="M28 39C28 39.5523 27.5523 40 27 40H25C24.4477 40 24 39.5523 24 39V37C24 36.4477 24.4477 36 25 36H27C27.5523 36 28 36.4477 28 37V39Z" fill="#861515"/>
<path d="M28 27C28 27.5523 27.5523 28 27 28H25C24.4477 28 24 27.5523 24 27V25C24 24.4477 24.4477 24 25 24H27C27.5523 24 28 24.4477 28 25V27Z" fill="#861515"/>
<path d="M28 15C28 15.5523 27.5523 16 27 16H25C24.4477 16 24 15.5523 24 15V13C24 12.4477 24.4477 12 25 12H27C27.5523 12 28 12.4477 28 13V15Z" fill="#861515"/>
<path d="M28 3C28 3.55228 27.5523 4 27 4H25C24.4477 4 24 3.55228 24 3V1C24 0.447716 24.4477 0 25 0H27C27.5523 0 28 0.447716 28 1V3Z" fill="#861515"/>
<path d="M4 51C4 51.5523 3.55228 52 3 52H1C0.447716 52 0 51.5523 0 51V49C0 48.4477 0.447716 48 1 48H3C3.55228 48 4 48.4477 4 49V51Z" fill="#861515"/>
<path d="M4 39C4 39.5523 3.55228 40 3 40H1C0.447716 40 0 39.5523 0 39V37C0 36.4477 0.447716 36 1 36H3C3.55228 36 4 36.4477 4 37V39Z" fill="#861515"/>
<path d="M4 27C4 27.5523 3.55228 28 3 28H1C0.447716 28 0 27.5523 0 27V25C0 24.4477 0.447716 24 1 24H3C3.55228 24 4 24.4477 4 25V27Z" fill="#861515"/>
<path d="M4 15C4 15.5523 3.55228 16 3 16H1C0.447716 16 0 15.5523 0 15V13C0 12.4477 0.447716 12 1 12H3C3.55228 12 4 12.4477 4 13V15Z" fill="#861515"/>
<path d="M4 3C4 3.55228 3.55228 4 3 4H1C0.447716 4 0 3.55228 0 3V1C0 0.447716 0.447716 0 1 0H3C3.55228 0 4 0.447716 4 1V3Z" fill="#861515"/>
</svg>
