<svg width="25" height="25" viewBox="0 0 25 25" fill="none" xmlns="http://www.w3.org/2000/svg">
<g clip-path="url(#clip0_421_1259)">
<path d="M3.125 3.125C2.2962 3.125 1.50134 3.45424 0.915291 4.04029C0.32924 4.62634 0 5.4212 0 6.25L0 18.7656C0.00413051 19.5917 0.335193 20.3826 0.920797 20.9652C1.5064 21.5479 2.2989 21.875 3.125 21.875H11.7188C11.926 21.875 12.1247 21.7927 12.2712 21.6462C12.4177 21.4997 12.5 21.301 12.5 21.0938C12.5 20.8865 12.4177 20.6878 12.2712 20.5413C12.1247 20.3948 11.926 20.3125 11.7188 20.3125H3.125C2.78106 20.3125 2.44671 20.1991 2.17381 19.9898C1.90091 19.7804 1.70471 19.4869 1.61563 19.1547L10.4281 13.7312L12.5 14.9734L23.4375 8.41094V13.2812C23.4375 13.4885 23.5198 13.6872 23.6663 13.8337C23.8128 13.9802 24.0115 14.0625 24.2188 14.0625C24.426 14.0625 24.6247 13.9802 24.7712 13.8337C24.9177 13.6872 25 13.4885 25 13.2812V6.25C25 5.4212 24.6708 4.62634 24.0847 4.04029C23.4987 3.45424 22.7038 3.125 21.875 3.125H3.125ZM8.91875 12.825L1.5625 17.3516V8.41094L8.91875 12.825ZM1.5625 6.58906V6.25C1.5625 5.8356 1.72712 5.43817 2.02015 5.14515C2.31317 4.85212 2.7106 4.6875 3.125 4.6875H21.875C22.2894 4.6875 22.6868 4.85212 22.9799 5.14515C23.2729 5.43817 23.4375 5.8356 23.4375 6.25V6.58906L12.5 13.1516L1.5625 6.58906Z" fill="white"/>
<path d="M22.2609 22.1078C23.8391 22.1078 24.7406 20.7688 24.7406 18.9438V18.6156C24.7406 16.1094 22.875 13.875 19.5625 13.875H19.5078C16.2812 13.875 14.0625 16 14.0625 19.2375V19.5719C14.0625 22.9688 16.3094 24.8125 19.3094 24.8125H19.3781C20.3063 24.8125 20.9688 24.6969 21.3109 24.5391V23.3984C20.9281 23.5703 20.2594 23.6797 19.4672 23.6797H19.3984C17.3141 23.6797 15.3812 22.4484 15.3812 19.5312V19.2859C15.3812 16.6969 17.0344 15.0297 19.5063 15.0297H19.5688C21.9672 15.0297 23.45 16.6703 23.45 18.6641V18.8484C23.45 20.3719 22.9438 21.0203 22.4516 21.0203C22.0891 21.0203 21.8109 20.7891 21.8109 20.3641V16.9422H20.3953V17.8312H20.3484C20.2172 17.3656 19.7734 16.8469 18.8578 16.8469C17.6422 16.8469 16.8906 17.7141 16.8906 19.0344V19.8594C16.8906 21.2531 17.6562 22.1 18.8594 22.1C19.5953 22.1 20.2594 21.7453 20.4437 21.0953H20.5109C20.6953 21.7516 21.475 22.1078 22.2609 22.1078ZM18.4281 19.6266V19.2719C18.4281 18.4188 18.7828 18.0359 19.3234 18.0359C19.7875 18.0359 20.2172 18.3359 20.2172 19.1422V19.7156C20.2172 20.6109 19.8219 20.8781 19.3359 20.8781C18.7828 20.8781 18.4281 20.5422 18.4281 19.6281V19.6266Z" fill="white"/>
</g>
<defs>
<clipPath id="clip0_421_1259">
<rect width="25" height="25" fill="white"/>
</clipPath>
</defs>
</svg>
