<svg width="25" height="25" viewBox="0 0 25 25" fill="none" xmlns="http://www.w3.org/2000/svg">
<g clip-path="url(#clip0_421_1283)">
<path d="M25 12.5767C25 5.62979 19.4031 -0.00146484 12.5 -0.00146484C5.5937 9.76563e-05 -0.00317383 5.62979 -0.00317383 12.5782C-0.00317383 18.8548 4.5687 24.0579 10.5437 25.0017V16.2126H7.37183V12.5782H10.5468V9.80478C10.5468 6.65322 12.414 4.9126 15.2687 4.9126C16.6375 4.9126 18.0671 5.15791 18.0671 5.15791V8.25166H16.4906C14.939 8.25166 14.4546 9.22197 14.4546 10.2173V12.5767H17.9203L17.3671 16.211H14.4531V25.0001C20.4281 24.0563 25 18.8532 25 12.5767Z" fill="white"/>
</g>
<defs>
<clipPath id="clip0_421_1283">
<rect width="25" height="25" fill="white"/>
</clipPath>
</defs>
</svg>
