<svg width="30" height="22" viewBox="0 0 30 22" fill="none" xmlns="http://www.w3.org/2000/svg">
<g clip-path="url(#clip0_421_1284)">
<path d="M15.0956 0.150879H15.2625C16.8038 0.156608 24.6131 0.2139 26.7188 0.790636C27.3553 0.966652 27.9353 1.30974 28.4009 1.78562C28.8665 2.26149 29.2013 2.85349 29.3719 3.50244C29.5613 4.22814 29.6944 5.18873 29.7844 6.17987L29.8031 6.37848L29.8444 6.87501L29.8594 7.07362C29.9813 8.81911 29.9963 10.4538 29.9981 10.8109V10.9542C29.9963 11.3247 29.9794 13.0701 29.8444 14.8882L29.8294 15.0887L29.8125 15.2873C29.7188 16.3797 29.58 17.4644 29.3719 18.2627C29.2013 18.9116 28.8665 19.5036 28.4009 19.9795C27.9353 20.4554 27.3553 20.7985 26.7188 20.9745C24.5438 21.5703 16.2769 21.6123 15.1312 21.6142H14.865C14.2856 21.6142 11.8894 21.6028 9.37687 21.5149L9.05812 21.5035L8.895 21.4958L8.57438 21.4825L8.25375 21.4691C6.1725 21.3755 4.19063 21.2247 3.2775 20.9726C2.64118 20.7967 2.06128 20.4539 1.59572 19.9784C1.13016 19.5029 0.795231 18.9113 0.624375 18.2627C0.41625 17.4663 0.2775 16.3797 0.18375 15.2873L0.16875 15.0868L0.15375 14.8882C0.0606814 13.5942 0.00940372 12.2974 0 11L0 10.7651C0.00375 10.3545 0.01875 8.9356 0.12 7.36963L0.133125 7.17293L0.13875 7.07362L0.15375 6.87501L0.195 6.37848L0.21375 6.17987C0.30375 5.18873 0.436875 4.22623 0.62625 3.50244C0.79682 2.85349 1.13162 2.26149 1.5972 1.78562C2.06278 1.30974 2.64283 0.966652 3.27937 0.790636C4.1925 0.542372 6.17437 0.389594 8.25562 0.294108L8.57438 0.28074L8.89687 0.269282L9.05812 0.263553L9.37875 0.250185C11.1632 0.191754 12.9484 0.159285 14.7337 0.152789L15.0956 0.150879ZM12 6.28109V15.4821L19.7944 10.8835L12 6.28109Z" fill="white"/>
</g>
<defs>
<clipPath id="clip0_421_1284">
<rect width="30" height="22" fill="white"/>
</clipPath>
</defs>
</svg>
