<svg width="50" height="50" viewBox="0 0 50 50" fill="none" xmlns="http://www.w3.org/2000/svg">
<g clip-path="url(#clip0_677_186)">
<path d="M25 0C18.3696 0 12.0107 2.63392 7.32233 7.32233C2.63392 12.0107 0 18.3696 0 25C0 31.6304 2.63392 37.9893 7.32233 42.6777C12.0107 47.3661 18.3696 50 25 50C31.6304 50 37.9893 47.3661 42.6777 42.6777C47.3661 37.9893 50 31.6304 50 25C50 18.3696 47.3661 12.0107 42.6777 7.32233C37.9893 2.63392 31.6304 0 25 0ZM35.9375 23.4375C36.3519 23.4375 36.7493 23.6021 37.0424 23.8951C37.3354 24.1882 37.5 24.5856 37.5 25C37.5 25.4144 37.3354 25.8118 37.0424 26.1049C36.7493 26.3979 36.3519 26.5625 35.9375 26.5625H17.8344L24.5438 33.2687C24.689 33.414 24.8043 33.5865 24.8829 33.7763C24.9615 33.9661 25.002 34.1696 25.002 34.375C25.002 34.5804 24.9615 34.7839 24.8829 34.9737C24.8043 35.1635 24.689 35.336 24.5438 35.4813C24.3985 35.6265 24.226 35.7418 24.0362 35.8204C23.8464 35.899 23.643 35.9395 23.4375 35.9395C23.232 35.9395 23.0286 35.899 22.8388 35.8204C22.649 35.7418 22.4765 35.6265 22.3312 35.4813L12.9562 26.1063C12.8107 25.9611 12.6953 25.7887 12.6165 25.5989C12.5378 25.409 12.4972 25.2055 12.4972 25C12.4972 24.7945 12.5378 24.591 12.6165 24.4011C12.6953 24.2113 12.8107 24.0389 12.9562 23.8937L22.3312 14.5187C22.4765 14.3735 22.649 14.2582 22.8388 14.1796C23.0286 14.101 23.232 14.0605 23.4375 14.0605C23.643 14.0605 23.8464 14.101 24.0362 14.1796C24.226 14.2582 24.3985 14.3735 24.5438 14.5187C24.689 14.664 24.8043 14.8365 24.8829 15.0263C24.9615 15.2161 25.002 15.4195 25.002 15.625C25.002 15.8305 24.9615 16.0339 24.8829 16.2237C24.8043 16.4135 24.689 16.586 24.5438 16.7313L17.8344 23.4375H35.9375Z" fill="#FF9999" fill-opacity="0.7"/>
</g>
<defs>
<clipPath id="clip0_677_186">
<rect width="50" height="50" fill="white" transform="matrix(-1 0 0 1 50 0)"/>
</clipPath>
</defs>
</svg>
