<svg width="120" height="100" viewBox="0 0 120 100" fill="none" xmlns="http://www.w3.org/2000/svg">
<g clip-path="url(#clip0_659_41)">
<path d="M110.51 -0.790771H9.48983C7.05416 -0.790771 4.71826 0.172858 2.99599 1.88813C1.27371 3.6034 0.306152 5.92981 0.306152 8.35557V90.6726C0.306152 93.0984 1.27371 95.4248 2.99599 97.1401C4.71826 98.8554 7.05416 99.819 9.48983 99.819H17.1754C18.0445 99.8193 18.8957 99.5739 19.6303 99.1115C20.3649 98.649 20.9527 97.9885 21.3253 97.2066C23.5582 92.5115 27.0835 88.5442 31.4913 85.7661C35.8991 82.9879 41.0082 81.5131 46.2245 81.5131C51.4408 81.5131 56.55 82.9879 60.9577 85.7661C65.3655 88.5442 68.8909 92.5115 71.1238 97.2066C71.4964 97.9885 72.0841 98.649 72.8187 99.1115C73.5533 99.5739 74.4046 99.8193 75.2736 99.819H110.51C112.946 99.819 115.282 98.8554 117.004 97.1401C118.726 95.4248 119.694 93.0984 119.694 90.6726V8.35557C119.694 5.92981 118.726 3.6034 117.004 1.88813C115.282 0.172858 112.946 -0.790771 110.51 -0.790771ZM32.449 58.6604C32.449 55.947 33.2569 53.2945 34.7706 51.0383C36.2843 48.7821 38.4357 47.0237 40.9529 45.9853C43.47 44.9469 46.2398 44.6752 48.912 45.2046C51.5842 45.7339 54.0387 47.0406 55.9653 48.9593C57.8918 50.878 59.2038 53.3226 59.7353 55.9839C60.2669 58.6452 59.9941 61.4038 58.9514 63.9107C57.9088 66.4176 56.1432 68.5603 53.8778 70.0678C51.6124 71.5753 48.9491 72.38 46.2245 72.38C42.571 72.38 39.0672 70.9345 36.4838 68.3616C33.9004 65.7887 32.449 62.2991 32.449 58.6604ZM110.51 90.6726H78.0402C74.2057 84.1068 68.4255 78.8833 61.4924 75.7184C64.9683 72.6359 67.4216 68.5742 68.5269 64.0715C69.6322 59.5689 69.3373 54.838 67.6815 50.506C66.0256 46.174 63.0869 42.4455 59.255 39.8148C55.423 37.1841 50.8787 35.7753 46.2245 35.7753C41.5703 35.7753 37.0261 37.1841 33.1941 39.8148C29.3621 42.4455 26.4234 46.174 24.7675 50.506C23.1117 54.838 22.8169 59.5689 23.9222 64.0715C25.0275 68.5742 27.4807 72.6359 30.9567 75.7184C24.0236 78.8833 18.2434 84.1068 14.4088 90.6726H9.48983V8.35557H110.51V90.6726ZM18.6735 31.2214V22.0751C18.6735 20.8622 19.1573 19.699 20.0184 18.8414C20.8796 17.9837 22.0475 17.5019 23.2653 17.5019H96.7347C97.9526 17.5019 99.1205 17.9837 99.9817 18.8414C100.843 19.699 101.327 20.8622 101.327 22.0751V76.9531C101.327 78.166 100.843 79.3292 99.9817 80.1869C99.1205 81.0445 97.9526 81.5263 96.7347 81.5263H87.5511C86.3332 81.5263 85.1653 81.0445 84.3041 80.1869C83.443 79.3292 82.9592 78.166 82.9592 76.9531C82.9592 75.7402 83.443 74.577 84.3041 73.7194C85.1653 72.8618 86.3332 72.38 87.5511 72.38H92.1429V26.6483H27.8572V31.2214C27.8572 32.4343 27.3734 33.5975 26.5123 34.4551C25.6511 35.3128 24.4832 35.7946 23.2653 35.7946C22.0475 35.7946 20.8796 35.3128 20.0184 34.4551C19.1573 33.5975 18.6735 32.4343 18.6735 31.2214Z" fill="#1E1E1E"/>
</g>
<defs>
<clipPath id="clip0_659_41">
<rect width="120" height="100" fill="white"/>
</clipPath>
</defs>
</svg>
