<svg version="1.2" xmlns="http://www.w3.org/2000/svg" viewBox="0 0 424 398" width="424" height="398">
	<style>
		.s0 { fill: #8f1717 } 
		.s1 { fill: #ffffff } 
	</style>
	<g id="Camada 1">
		<g id="-e-Icon Vermelho">
			<path id="&lt;Path&gt;" class="s0" d="m55.25 0.33h313.91c29.86 0 54.29 24.89 54.29 55.3v286.94c0 30.42-24.43 55.3-54.29 55.3h-313.91c-29.86 0-54.29-24.88-54.29-55.3v-286.94c0-30.41 24.43-55.3 54.29-55.3z"/>
			<path id="&lt;Path&gt;" class="s1" d="m8.13 196.13c52.67 23.5 119.1 116.14 123.82 201.57 48.84-107.02 162.03-305.3 284.06-371.05-1.89-3.25-4.01-6.33-6.47-9.15-104.85 38.01-211.55 135.86-264.61 255.97-18.4-93.18-82.17-94.87-136.8-77.34z"/>
			<path id="&lt;Path&gt;" class="s1" d="m127.02 86.96c24.45-10.27 52.02 2.71 61.58 28.99 9.55 26.28-2.53 55.92-26.98 66.19-24.45 10.27-52.03-2.72-61.58-29-9.55-26.27 2.53-55.91 26.98-66.18z"/>
		</g>
	</g>
</svg>