<svg width="21" height="29" viewBox="0 0 21 29" fill="none" xmlns="http://www.w3.org/2000/svg">
<g clip-path="url(#clip0_430_1602)">
<path d="M15.2778 16.2267C15.2778 16.4773 15.1772 16.7176 14.9981 16.8948C14.819 17.072 14.5762 17.1715 14.3229 17.1715H6.68403C6.43078 17.1715 6.18791 17.072 6.00884 16.8948C5.82977 16.7176 5.72917 16.4773 5.72917 16.2267C5.72917 15.9762 5.82977 15.7359 6.00884 15.5587C6.18791 15.3815 6.43078 15.282 6.68403 15.282H14.3229C14.5762 15.282 14.819 15.3815 14.9981 15.5587C15.1772 15.7359 15.2778 15.9762 15.2778 16.2267ZM14.3229 19.061H6.68403C6.43078 19.061 6.18791 19.1606 6.00884 19.3378C5.82977 19.5149 5.72917 19.7552 5.72917 20.0058C5.72917 20.2564 5.82977 20.4967 6.00884 20.6739C6.18791 20.851 6.43078 20.9506 6.68403 20.9506H14.3229C14.5762 20.9506 14.819 20.851 14.9981 20.6739C15.1772 20.4967 15.2778 20.2564 15.2778 20.0058C15.2778 19.7552 15.1772 19.5149 14.9981 19.3378C14.819 19.1606 14.5762 19.061 14.3229 19.061ZM21.0069 5.8343V24.7297C21.0069 25.7319 20.6045 26.6931 19.8883 27.4019C19.172 28.1106 18.2005 28.5087 17.1875 28.5087H3.81944C2.80646 28.5087 1.83497 28.1106 1.11869 27.4019C0.402404 26.6931 0 25.7319 0 24.7297V5.8343C0 5.58373 0.100601 5.34343 0.279673 5.16625C0.458744 4.98907 0.701616 4.88953 0.954861 4.88953H3.81944V3.94477C3.81944 3.6942 3.92005 3.45389 4.09912 3.27672C4.27819 3.09954 4.52106 3 4.77431 3C5.02755 3 5.27042 3.09954 5.44949 3.27672C5.62857 3.45389 5.72917 3.6942 5.72917 3.94477V4.88953H9.54861V3.94477C9.54861 3.6942 9.64921 3.45389 9.82828 3.27672C10.0074 3.09954 10.2502 3 10.5035 3C10.7567 3 10.9996 3.09954 11.1787 3.27672C11.3577 3.45389 11.4583 3.6942 11.4583 3.94477V4.88953H15.2778V3.94477C15.2778 3.6942 15.3784 3.45389 15.5574 3.27672C15.7365 3.09954 15.9794 3 16.2326 3C16.4859 3 16.7288 3.09954 16.9078 3.27672C17.0869 3.45389 17.1875 3.6942 17.1875 3.94477V4.88953H20.0521C20.3053 4.88953 20.5482 4.98907 20.7273 5.16625C20.9063 5.34343 21.0069 5.58373 21.0069 5.8343ZM19.0972 6.77907H17.1875V7.72384C17.1875 7.9744 17.0869 8.21471 16.9078 8.39189C16.7288 8.56907 16.4859 8.6686 16.2326 8.6686C15.9794 8.6686 15.7365 8.56907 15.5574 8.39189C15.3784 8.21471 15.2778 7.9744 15.2778 7.72384V6.77907H11.4583V7.72384C11.4583 7.9744 11.3577 8.21471 11.1787 8.39189C10.9996 8.56907 10.7567 8.6686 10.5035 8.6686C10.2502 8.6686 10.0074 8.56907 9.82828 8.39189C9.64921 8.21471 9.54861 7.9744 9.54861 7.72384V6.77907H5.72917V7.72384C5.72917 7.9744 5.62857 8.21471 5.44949 8.39189C5.27042 8.56907 5.02755 8.6686 4.77431 8.6686C4.52106 8.6686 4.27819 8.56907 4.09912 8.39189C3.92005 8.21471 3.81944 7.9744 3.81944 7.72384V6.77907H1.90972V24.7297C1.90972 25.2308 2.11092 25.7114 2.46907 26.0658C2.82721 26.4201 3.31295 26.6192 3.81944 26.6192H17.1875C17.694 26.6192 18.1797 26.4201 18.5379 26.0658C18.896 25.7114 19.0972 25.2308 19.0972 24.7297V6.77907Z" fill="#1E1E1E"/>
</g>
<defs>
<clipPath id="clip0_430_1602">
<rect width="21.0069" height="28.5087" fill="white"/>
</clipPath>
</defs>
</svg>
