<svg width="25" height="25" viewBox="0 0 25 25" fill="none" xmlns="http://www.w3.org/2000/svg">
<g clip-path="url(#clip0_421_1267)">
<path d="M5.70938 2.07497C5.61714 1.95632 5.50071 1.85865 5.36782 1.78845C5.23493 1.71825 5.08863 1.67713 4.93863 1.66782C4.78862 1.65851 4.63836 1.68122 4.49781 1.73445C4.35726 1.78768 4.22965 1.8702 4.12344 1.97653L2.50782 3.59372C1.75313 4.34997 1.475 5.42029 1.80469 6.35935C3.17458 10.2455 5.40024 13.774 8.31719 16.6843C11.2275 19.6013 14.7561 21.827 18.6422 23.1968C19.5813 23.5265 20.6516 23.2484 21.4078 22.4937L23.0234 20.8781C23.1298 20.7719 23.2123 20.6443 23.2655 20.5037C23.3188 20.3632 23.3415 20.2129 23.3322 20.0629C23.3228 19.9129 23.2817 19.7666 23.2115 19.6337C23.1413 19.5008 23.0437 19.3844 22.925 19.2922L19.3203 16.489C19.1934 16.3909 19.046 16.3228 18.8891 16.2898C18.7321 16.2568 18.5697 16.2597 18.4141 16.2984L14.9922 17.1531C14.5354 17.2665 14.0571 17.26 13.6035 17.1344C13.1499 17.0088 12.7365 16.7682 12.4031 16.4359L8.56563 12.5968C8.2331 12.2637 7.99222 11.8503 7.8663 11.3967C7.74038 10.9431 7.73369 10.4647 7.84688 10.0078L8.70313 6.58591C8.74181 6.43026 8.74476 6.26787 8.71175 6.11092C8.67873 5.95397 8.61062 5.80653 8.5125 5.67966L5.70938 2.07497ZM2.94375 0.79841C3.21718 0.524894 3.54567 0.312676 3.90741 0.17585C4.26915 0.0390228 4.65585 -0.0192824 5.04185 0.00480552C5.42785 0.0288935 5.80431 0.134823 6.14622 0.315561C6.48814 0.496299 6.7877 0.747709 7.025 1.0531L9.82813 4.65622C10.3422 5.31716 10.5234 6.1781 10.3203 6.9906L9.46563 10.4125C9.42175 10.5897 9.42429 10.7753 9.47301 10.9513C9.52172 11.1273 9.61497 11.2877 9.74375 11.4172L13.5828 15.2562C13.7124 15.3853 13.8731 15.4787 14.0494 15.5274C14.2257 15.5761 14.4116 15.5785 14.5891 15.5343L18.0094 14.6797C18.4104 14.58 18.8288 14.5725 19.2331 14.6577C19.6374 14.743 20.0171 14.9188 20.3438 15.1718L23.9469 17.975C25.2422 18.9828 25.3609 20.8968 24.2016 22.0547L22.5859 23.6703C21.4297 24.8265 19.7016 25.3343 18.0906 24.7672C13.9667 23.3181 10.2227 20.9574 7.1375 17.8609C4.04121 14.7761 1.68055 11.0327 0.231253 6.90935C-0.334372 5.29997 0.173441 3.57029 1.32969 2.41404L2.94375 0.79841Z" fill="white"/>
</g>
<defs>
<clipPath id="clip0_421_1267">
<rect width="25" height="25" fill="white"/>
</clipPath>
</defs>
</svg>
